<?xml version="1.0" encoding="UTF-8" standalone="no"?>
<svg
   xmlns:dc="http://purl.org/dc/elements/1.1/"
   xmlns:cc="http://creativecommons.org/ns#"
   xmlns:rdf="http://www.w3.org/1999/02/22-rdf-syntax-ns#"
   xmlns:svg="http://www.w3.org/2000/svg"
   xmlns="http://www.w3.org/2000/svg"
   xmlns:sodipodi="http://sodipodi.sourceforge.net/DTD/sodipodi-0.dtd"
   xmlns:inkscape="http://www.inkscape.org/namespaces/inkscape"
   inkscape:version="1.0 (4035a4fb49, 2020-05-01)"
   sodipodi:docname="close-button.svg"
   xml:space="preserve"
   style="enable-background:new 0 0 26 26;"
   viewBox="0 0 26 26"
   y="0px"
   x="0px"
   id="Capa_1"
   version="1.1"><metadata
   id="metadata150"><rdf:RDF><cc:Work
       rdf:about=""><dc:format>image/svg+xml</dc:format><dc:type
         rdf:resource="http://purl.org/dc/dcmitype/StillImage" /></cc:Work></rdf:RDF></metadata><defs
   id="defs148" /><sodipodi:namedview
   inkscape:current-layer="Capa_1"
   inkscape:window-maximized="1"
   inkscape:window-y="-7"
   inkscape:window-x="-7"
   inkscape:cy="13"
   inkscape:cx="13"
   inkscape:zoom="25.576923"
   showgrid="false"
   id="namedview146"
   inkscape:window-height="830"
   inkscape:window-width="1600"
   inkscape:pageshadow="2"
   inkscape:pageopacity="0"
   guidetolerance="10"
   gridtolerance="10"
   objecttolerance="10"
   borderopacity="1"
   bordercolor="#666666"
   pagecolor="#ffffff" />
<rect
   y="5.1218047"
   x="4.3789473"
   height="15.756391"
   width="16.772932"
   id="rect152"
   style="fill:#000000;stroke:none;stroke-width:1.13386" /><rect
   style="fill:#000000;stroke:none;stroke-width:1.13386"
   id="rect154"
   width="16.772932"
   height="15.756391"
   x="4.3789473"
   y="5.1218047" /><g
   style="fill:#ffffff"
   id="g113">
	<path
   id="path111"
   d="M21.125,0H4.875C2.182,0,0,2.182,0,4.875v16.25C0,23.818,2.182,26,4.875,26h16.25   C23.818,26,26,23.818,26,21.125V4.875C26,2.182,23.818,0,21.125,0z M18.78,17.394l-1.388,1.387c-0.254,0.255-0.67,0.255-0.924,0   L13,15.313L9.533,18.78c-0.255,0.255-0.67,0.255-0.925-0.002L7.22,17.394c-0.253-0.256-0.253-0.669,0-0.926l3.468-3.467   L7.221,9.534c-0.254-0.256-0.254-0.672,0-0.925l1.388-1.388c0.255-0.257,0.671-0.257,0.925,0L13,10.689l3.468-3.468   c0.255-0.257,0.671-0.257,0.924,0l1.388,1.386c0.254,0.255,0.254,0.671,0.001,0.927l-3.468,3.467l3.468,3.467   C19.033,16.725,19.033,17.138,18.78,17.394z"
   style="fill:#ffffff" />
</g>
<g
   id="g115">
</g>
<g
   id="g117">
</g>
<g
   id="g119">
</g>
<g
   id="g121">
</g>
<g
   id="g123">
</g>
<g
   id="g125">
</g>
<g
   id="g127">
</g>
<g
   id="g129">
</g>
<g
   id="g131">
</g>
<g
   id="g133">
</g>
<g
   id="g135">
</g>
<g
   id="g137">
</g>
<g
   id="g139">
</g>
<g
   id="g141">
</g>
<g
   id="g143">
</g>
</svg>
